<?xml version="1.0" encoding="UTF-8" standalone="no"?><!DOCTYPE svg PUBLIC "-//W3C//DTD SVG 1.1//EN" "http://www.w3.org/Graphics/SVG/1.1/DTD/svg11.dtd"><!-- Generated by graphviz version 2.40.1 (20161225.0304)
 --><!-- Title: Tree Pages: 1 --><svg xmlns="http://www.w3.org/2000/svg" xmlns:xlink="http://www.w3.org/1999/xlink" width="978pt" height="851pt" viewBox="0.00 0.00 978.04 851.20">
<g id="graph0" class="graph" transform="scale(1 1) rotate(0) translate(4 847.2)">
<title>Tree</title>
<polygon fill="#ffffff" stroke="transparent" points="-4,4 -4,-847.2 974.0356,-847.2 974.0356,4 -4,4"/>
<!-- 0 -->
<g id="node1" class="node">
<title>0</title>
<polygon fill="none" stroke="#000000" points="626.8044,-843.2 514.7312,-843.2 514.7312,-751.2 626.8044,-751.2 626.8044,-843.2"/>
<text text-anchor="middle" x="570.7678" y="-826.6" font-family="Times,serif" font-size="14.00" fill="#000000">PPE &lt;= 0.134</text>
<text text-anchor="middle" x="570.7678" y="-809.8" font-family="Times,serif" font-size="14.00" fill="#000000">entropy = 0.823</text>
<text text-anchor="middle" x="570.7678" y="-793" font-family="Times,serif" font-size="14.00" fill="#000000">samples = 136</text>
<text text-anchor="middle" x="570.7678" y="-776.2" font-family="Times,serif" font-size="14.00" fill="#000000">value = [35, 101]</text>
<text text-anchor="middle" x="570.7678" y="-759.4" font-family="Times,serif" font-size="14.00" fill="#000000">class = PD</text>
</g>
<!-- 1 -->
<g id="node2" class="node">
<title>1</title>
<polygon fill="none" stroke="#000000" points="545.7036,-715.2 379.832,-715.2 379.832,-623.2 545.7036,-623.2 545.7036,-715.2"/>
<text text-anchor="middle" x="462.7678" y="-698.6" font-family="Times,serif" font-size="14.00" fill="#000000">MDVP:Fhi(Hz) &lt;= 229.18</text>
<text text-anchor="middle" x="462.7678" y="-681.8" font-family="Times,serif" font-size="14.00" fill="#000000">entropy = 0.863</text>
<text text-anchor="middle" x="462.7678" y="-665" font-family="Times,serif" font-size="14.00" fill="#000000">samples = 35</text>
<text text-anchor="middle" x="462.7678" y="-648.2" font-family="Times,serif" font-size="14.00" fill="#000000">value = [25, 10]</text>
<text text-anchor="middle" x="462.7678" y="-631.4" font-family="Times,serif" font-size="14.00" fill="#000000">class = HD</text>
</g>
<!-- 0&#45;&gt;1 -->
<g id="edge1" class="edge">
<title>0-&gt;1</title>
<path fill="none" stroke="#000000" d="M531.7773,-750.9891C524.1304,-741.926 516.0472,-732.3459 508.2107,-723.0582"/>
<polygon fill="#000000" stroke="#000000" points="510.8248,-720.729 501.701,-715.3431 505.4748,-725.2431 510.8248,-720.729"/>
<text text-anchor="middle" x="499.59" y="-736.0538" font-family="Times,serif" font-size="14.00" fill="#000000">True</text>
</g>
<!-- 12 -->
<g id="node13" class="node">
<title>12</title>
<polygon fill="none" stroke="#000000" points="705.3843,-715.2 570.1513,-715.2 570.1513,-623.2 705.3843,-623.2 705.3843,-715.2"/>
<text text-anchor="middle" x="637.7678" y="-698.6" font-family="Times,serif" font-size="14.00" fill="#000000">MDVP:APQ &lt;= 0.02</text>
<text text-anchor="middle" x="637.7678" y="-681.8" font-family="Times,serif" font-size="14.00" fill="#000000">entropy = 0.466</text>
<text text-anchor="middle" x="637.7678" y="-665" font-family="Times,serif" font-size="14.00" fill="#000000">samples = 101</text>
<text text-anchor="middle" x="637.7678" y="-648.2" font-family="Times,serif" font-size="14.00" fill="#000000">value = [10, 91]</text>
<text text-anchor="middle" x="637.7678" y="-631.4" font-family="Times,serif" font-size="14.00" fill="#000000">class = PD</text>
</g>
<!-- 0&#45;&gt;12 -->
<g id="edge12" class="edge">
<title>0-&gt;12</title>
<path fill="none" stroke="#000000" d="M594.9563,-750.9891C599.4631,-742.3791 604.2141,-733.3026 608.8461,-724.4535"/>
<polygon fill="#000000" stroke="#000000" points="612.0781,-725.8259 613.6148,-715.3431 605.8763,-722.5796 612.0781,-725.8259"/>
<text text-anchor="middle" x="621.0786" y="-735.0029" font-family="Times,serif" font-size="14.00" fill="#000000">False</text>
</g>
<!-- 2 -->
<g id="node3" class="node">
<title>2</title>
<polygon fill="none" stroke="#000000" points="371.3044,-587.2 266.2312,-587.2 266.2312,-495.2 371.3044,-495.2 371.3044,-587.2"/>
<text text-anchor="middle" x="318.7678" y="-570.6" font-family="Times,serif" font-size="14.00" fill="#000000">DFA &lt;= 0.728</text>
<text text-anchor="middle" x="318.7678" y="-553.8" font-family="Times,serif" font-size="14.00" fill="#000000">entropy = 1.0</text>
<text text-anchor="middle" x="318.7678" y="-537" font-family="Times,serif" font-size="14.00" fill="#000000">samples = 20</text>
<text text-anchor="middle" x="318.7678" y="-520.2" font-family="Times,serif" font-size="14.00" fill="#000000">value = [10, 10]</text>
<text text-anchor="middle" x="318.7678" y="-503.4" font-family="Times,serif" font-size="14.00" fill="#000000">class = HD</text>
</g>
<!-- 1&#45;&gt;2 -->
<g id="edge2" class="edge">
<title>1-&gt;2</title>
<path fill="none" stroke="#000000" d="M410.7805,-622.9891C400.2787,-613.6541 389.1598,-603.7706 378.4188,-594.2231"/>
<polygon fill="#000000" stroke="#000000" points="380.4782,-591.3708 370.6788,-587.3431 375.8276,-596.6027 380.4782,-591.3708"/>
</g>
<!-- 11 -->
<g id="node12" class="node">
<title>11</title>
<polygon fill="none" stroke="#000000" points="511.8045,-578.9003 413.7311,-578.9003 413.7311,-503.4997 511.8045,-503.4997 511.8045,-578.9003"/>
<text text-anchor="middle" x="462.7678" y="-562.2" font-family="Times,serif" font-size="14.00" fill="#000000">entropy = 0.0</text>
<text text-anchor="middle" x="462.7678" y="-545.4" font-family="Times,serif" font-size="14.00" fill="#000000">samples = 15</text>
<text text-anchor="middle" x="462.7678" y="-528.6" font-family="Times,serif" font-size="14.00" fill="#000000">value = [15, 0]</text>
<text text-anchor="middle" x="462.7678" y="-511.8" font-family="Times,serif" font-size="14.00" fill="#000000">class = HD</text>
</g>
<!-- 1&#45;&gt;11 -->
<g id="edge11" class="edge">
<title>1-&gt;11</title>
<path fill="none" stroke="#000000" d="M462.7678,-622.9891C462.7678,-612.0272 462.7678,-600.309 462.7678,-589.2667"/>
<polygon fill="#000000" stroke="#000000" points="466.2679,-588.9335 462.7678,-578.9335 459.2679,-588.9335 466.2679,-588.9335"/>
</g>
<!-- 3 -->
<g id="node4" class="node">
<title>3</title>
<polygon fill="none" stroke="#000000" points="236.2527,-459.2 75.2829,-459.2 75.2829,-367.2 236.2527,-367.2 236.2527,-459.2"/>
<text text-anchor="middle" x="155.7678" y="-442.6" font-family="Times,serif" font-size="14.00" fill="#000000">MDVP:Jitter(Abs) &lt;= 0.0</text>
<text text-anchor="middle" x="155.7678" y="-425.8" font-family="Times,serif" font-size="14.00" fill="#000000">entropy = 0.503</text>
<text text-anchor="middle" x="155.7678" y="-409" font-family="Times,serif" font-size="14.00" fill="#000000">samples = 9</text>
<text text-anchor="middle" x="155.7678" y="-392.2" font-family="Times,serif" font-size="14.00" fill="#000000">value = [1, 8]</text>
<text text-anchor="middle" x="155.7678" y="-375.4" font-family="Times,serif" font-size="14.00" fill="#000000">class = PD</text>
</g>
<!-- 2&#45;&gt;3 -->
<g id="edge3" class="edge">
<title>2-&gt;3</title>
<path fill="none" stroke="#000000" d="M265.8464,-499.6421C252.042,-488.8018 236.9851,-476.978 222.5636,-465.6531"/>
<polygon fill="#000000" stroke="#000000" points="224.6555,-462.8457 214.6289,-459.4222 220.3322,-468.3511 224.6555,-462.8457"/>
</g>
<!-- 6 -->
<g id="node7" class="node">
<title>6</title>
<polygon fill="none" stroke="#000000" points="371.8354,-459.2 265.7002,-459.2 265.7002,-367.2 371.8354,-367.2 371.8354,-459.2"/>
<text text-anchor="middle" x="318.7678" y="-442.6" font-family="Times,serif" font-size="14.00" fill="#000000">RPDE &lt;= 0.415</text>
<text text-anchor="middle" x="318.7678" y="-425.8" font-family="Times,serif" font-size="14.00" fill="#000000">entropy = 0.684</text>
<text text-anchor="middle" x="318.7678" y="-409" font-family="Times,serif" font-size="14.00" fill="#000000">samples = 11</text>
<text text-anchor="middle" x="318.7678" y="-392.2" font-family="Times,serif" font-size="14.00" fill="#000000">value = [9, 2]</text>
<text text-anchor="middle" x="318.7678" y="-375.4" font-family="Times,serif" font-size="14.00" fill="#000000">class = HD</text>
</g>
<!-- 2&#45;&gt;6 -->
<g id="edge6" class="edge">
<title>2-&gt;6</title>
<path fill="none" stroke="#000000" d="M318.7678,-494.9891C318.7678,-486.7417 318.7678,-478.0661 318.7678,-469.5724"/>
<polygon fill="#000000" stroke="#000000" points="322.2679,-469.3431 318.7678,-459.3431 315.2679,-469.3431 322.2679,-469.3431"/>
</g>
<!-- 4 -->
<g id="node5" class="node">
<title>4</title>
<polygon fill="none" stroke="#000000" points="91.3046,-322.9003 .231,-322.9003 .231,-247.4997 91.3046,-247.4997 91.3046,-322.9003"/>
<text text-anchor="middle" x="45.7678" y="-306.2" font-family="Times,serif" font-size="14.00" fill="#000000">entropy = 0.0</text>
<text text-anchor="middle" x="45.7678" y="-289.4" font-family="Times,serif" font-size="14.00" fill="#000000">samples = 7</text>
<text text-anchor="middle" x="45.7678" y="-272.6" font-family="Times,serif" font-size="14.00" fill="#000000">value = [0, 7]</text>
<text text-anchor="middle" x="45.7678" y="-255.8" font-family="Times,serif" font-size="14.00" fill="#000000">class = PD</text>
</g>
<!-- 3&#45;&gt;4 -->
<g id="edge4" class="edge">
<title>3-&gt;4</title>
<path fill="none" stroke="#000000" d="M116.0553,-366.9891C105.858,-355.1231 94.8991,-342.371 84.7397,-330.5492"/>
<polygon fill="#000000" stroke="#000000" points="87.3672,-328.2365 78.195,-322.9335 82.0583,-332.7989 87.3672,-328.2365"/>
</g>
<!-- 5 -->
<g id="node6" class="node">
<title>5</title>
<polygon fill="none" stroke="#000000" points="201.3046,-322.9003 110.231,-322.9003 110.231,-247.4997 201.3046,-247.4997 201.3046,-322.9003"/>
<text text-anchor="middle" x="155.7678" y="-306.2" font-family="Times,serif" font-size="14.00" fill="#000000">entropy = 1.0</text>
<text text-anchor="middle" x="155.7678" y="-289.4" font-family="Times,serif" font-size="14.00" fill="#000000">samples = 2</text>
<text text-anchor="middle" x="155.7678" y="-272.6" font-family="Times,serif" font-size="14.00" fill="#000000">value = [1, 1]</text>
<text text-anchor="middle" x="155.7678" y="-255.8" font-family="Times,serif" font-size="14.00" fill="#000000">class = HD</text>
</g>
<!-- 3&#45;&gt;5 -->
<g id="edge5" class="edge">
<title>3-&gt;5</title>
<path fill="none" stroke="#000000" d="M155.7678,-366.9891C155.7678,-356.0272 155.7678,-344.309 155.7678,-333.2667"/>
<polygon fill="#000000" stroke="#000000" points="159.2679,-332.9335 155.7678,-322.9335 152.2679,-332.9335 159.2679,-332.9335"/>
</g>
<!-- 7 -->
<g id="node8" class="node">
<title>7</title>
<polygon fill="none" stroke="#000000" points="388.313,-331.2 219.2226,-331.2 219.2226,-239.2 388.313,-239.2 388.313,-331.2"/>
<text text-anchor="middle" x="303.7678" y="-314.6" font-family="Times,serif" font-size="14.00" fill="#000000">MDVP:Fo(Hz) &lt;= 192.759</text>
<text text-anchor="middle" x="303.7678" y="-297.8" font-family="Times,serif" font-size="14.00" fill="#000000">entropy = 1.0</text>
<text text-anchor="middle" x="303.7678" y="-281" font-family="Times,serif" font-size="14.00" fill="#000000">samples = 4</text>
<text text-anchor="middle" x="303.7678" y="-264.2" font-family="Times,serif" font-size="14.00" fill="#000000">value = [2, 2]</text>
<text text-anchor="middle" x="303.7678" y="-247.4" font-family="Times,serif" font-size="14.00" fill="#000000">class = HD</text>
</g>
<!-- 6&#45;&gt;7 -->
<g id="edge7" class="edge">
<title>6-&gt;7</title>
<path fill="none" stroke="#000000" d="M313.3525,-366.9891C312.3753,-358.651 311.347,-349.8754 310.3411,-341.2925"/>
<polygon fill="#000000" stroke="#000000" points="313.8154,-340.8677 309.1752,-331.3431 306.863,-341.6825 313.8154,-340.8677"/>
</g>
<!-- 10 -->
<g id="node11" class="node">
<title>10</title>
<polygon fill="none" stroke="#000000" points="497.3046,-322.9003 406.231,-322.9003 406.231,-247.4997 497.3046,-247.4997 497.3046,-322.9003"/>
<text text-anchor="middle" x="451.7678" y="-306.2" font-family="Times,serif" font-size="14.00" fill="#000000">entropy = 0.0</text>
<text text-anchor="middle" x="451.7678" y="-289.4" font-family="Times,serif" font-size="14.00" fill="#000000">samples = 7</text>
<text text-anchor="middle" x="451.7678" y="-272.6" font-family="Times,serif" font-size="14.00" fill="#000000">value = [7, 0]</text>
<text text-anchor="middle" x="451.7678" y="-255.8" font-family="Times,serif" font-size="14.00" fill="#000000">class = HD</text>
</g>
<!-- 6&#45;&gt;10 -->
<g id="edge10" class="edge">
<title>6-&gt;10</title>
<path fill="none" stroke="#000000" d="M366.7839,-366.9891C379.3481,-354.8971 392.8687,-341.8849 405.3481,-329.8746"/>
<polygon fill="#000000" stroke="#000000" points="407.7821,-332.3897 412.5603,-322.9335 402.9281,-327.346 407.7821,-332.3897"/>
</g>
<!-- 8 -->
<g id="node9" class="node">
<title>8</title>
<polygon fill="none" stroke="#000000" points="261.3046,-194.9003 170.231,-194.9003 170.231,-119.4997 261.3046,-119.4997 261.3046,-194.9003"/>
<text text-anchor="middle" x="215.7678" y="-178.2" font-family="Times,serif" font-size="14.00" fill="#000000">entropy = 0.0</text>
<text text-anchor="middle" x="215.7678" y="-161.4" font-family="Times,serif" font-size="14.00" fill="#000000">samples = 2</text>
<text text-anchor="middle" x="215.7678" y="-144.6" font-family="Times,serif" font-size="14.00" fill="#000000">value = [0, 2]</text>
<text text-anchor="middle" x="215.7678" y="-127.8" font-family="Times,serif" font-size="14.00" fill="#000000">class = PD</text>
</g>
<!-- 7&#45;&gt;8 -->
<g id="edge8" class="edge">
<title>7-&gt;8</title>
<path fill="none" stroke="#000000" d="M271.9978,-238.9891C263.9953,-227.3492 255.4066,-214.8565 247.4105,-203.2257"/>
<polygon fill="#000000" stroke="#000000" points="250.2591,-201.1911 241.7096,-194.9335 244.4908,-205.1568 250.2591,-201.1911"/>
</g>
<!-- 9 -->
<g id="node10" class="node">
<title>9</title>
<polygon fill="none" stroke="#000000" points="371.3046,-194.9003 280.231,-194.9003 280.231,-119.4997 371.3046,-119.4997 371.3046,-194.9003"/>
<text text-anchor="middle" x="325.7678" y="-178.2" font-family="Times,serif" font-size="14.00" fill="#000000">entropy = 0.0</text>
<text text-anchor="middle" x="325.7678" y="-161.4" font-family="Times,serif" font-size="14.00" fill="#000000">samples = 2</text>
<text text-anchor="middle" x="325.7678" y="-144.6" font-family="Times,serif" font-size="14.00" fill="#000000">value = [2, 0]</text>
<text text-anchor="middle" x="325.7678" y="-127.8" font-family="Times,serif" font-size="14.00" fill="#000000">class = HD</text>
</g>
<!-- 7&#45;&gt;9 -->
<g id="edge9" class="edge">
<title>7-&gt;9</title>
<path fill="none" stroke="#000000" d="M311.7103,-238.9891C313.6138,-227.9142 315.65,-216.0674 317.565,-204.9254"/>
<polygon fill="#000000" stroke="#000000" points="321.0378,-205.3819 319.2824,-194.9335 314.1389,-204.1961 321.0378,-205.3819"/>
</g>
<!-- 13 -->
<g id="node14" class="node">
<title>13</title>
<polygon fill="none" stroke="#000000" points="694.5915,-587.2 580.9441,-587.2 580.9441,-495.2 694.5915,-495.2 694.5915,-587.2"/>
<text text-anchor="middle" x="637.7678" y="-570.6" font-family="Times,serif" font-size="14.00" fill="#000000">spread2 &lt;= 0.194</text>
<text text-anchor="middle" x="637.7678" y="-553.8" font-family="Times,serif" font-size="14.00" fill="#000000">entropy = 0.801</text>
<text text-anchor="middle" x="637.7678" y="-537" font-family="Times,serif" font-size="14.00" fill="#000000">samples = 41</text>
<text text-anchor="middle" x="637.7678" y="-520.2" font-family="Times,serif" font-size="14.00" fill="#000000">value = [10, 31]</text>
<text text-anchor="middle" x="637.7678" y="-503.4" font-family="Times,serif" font-size="14.00" fill="#000000">class = PD</text>
</g>
<!-- 12&#45;&gt;13 -->
<g id="edge13" class="edge">
<title>12-&gt;13</title>
<path fill="none" stroke="#000000" d="M637.7678,-622.9891C637.7678,-614.7417 637.7678,-606.0661 637.7678,-597.5724"/>
<polygon fill="#000000" stroke="#000000" points="641.2679,-597.3431 637.7678,-587.3431 634.2679,-597.3431 641.2679,-597.3431"/>
</g>
<!-- 26 -->
<g id="node27" class="node">
<title>26</title>
<polygon fill="none" stroke="#000000" points="810.8045,-578.9003 712.7311,-578.9003 712.7311,-503.4997 810.8045,-503.4997 810.8045,-578.9003"/>
<text text-anchor="middle" x="761.7678" y="-562.2" font-family="Times,serif" font-size="14.00" fill="#000000">entropy = 0.0</text>
<text text-anchor="middle" x="761.7678" y="-545.4" font-family="Times,serif" font-size="14.00" fill="#000000">samples = 60</text>
<text text-anchor="middle" x="761.7678" y="-528.6" font-family="Times,serif" font-size="14.00" fill="#000000">value = [0, 60]</text>
<text text-anchor="middle" x="761.7678" y="-511.8" font-family="Times,serif" font-size="14.00" fill="#000000">class = PD</text>
</g>
<!-- 12&#45;&gt;26 -->
<g id="edge26" class="edge">
<title>12-&gt;26</title>
<path fill="none" stroke="#000000" d="M682.5346,-622.9891C694.1392,-611.0101 706.6188,-598.128 718.1628,-586.2116"/>
<polygon fill="#000000" stroke="#000000" points="720.7693,-588.5512 725.2135,-578.9335 715.7416,-583.6806 720.7693,-588.5512"/>
</g>
<!-- 14 -->
<g id="node15" class="node">
<title>14</title>
<polygon fill="none" stroke="#000000" points="724.2036,-459.2 551.332,-459.2 551.332,-367.2 724.2036,-367.2 724.2036,-459.2"/>
<text text-anchor="middle" x="637.7678" y="-442.6" font-family="Times,serif" font-size="14.00" fill="#000000">MDVP:Flo(Hz) &lt;= 109.403</text>
<text text-anchor="middle" x="637.7678" y="-425.8" font-family="Times,serif" font-size="14.00" fill="#000000">entropy = 0.946</text>
<text text-anchor="middle" x="637.7678" y="-409" font-family="Times,serif" font-size="14.00" fill="#000000">samples = 11</text>
<text text-anchor="middle" x="637.7678" y="-392.2" font-family="Times,serif" font-size="14.00" fill="#000000">value = [7, 4]</text>
<text text-anchor="middle" x="637.7678" y="-375.4" font-family="Times,serif" font-size="14.00" fill="#000000">class = HD</text>
</g>
<!-- 13&#45;&gt;14 -->
<g id="edge14" class="edge">
<title>13-&gt;14</title>
<path fill="none" stroke="#000000" d="M637.7678,-494.9891C637.7678,-486.7417 637.7678,-478.0661 637.7678,-469.5724"/>
<polygon fill="#000000" stroke="#000000" points="641.2679,-469.3431 637.7678,-459.3431 634.2679,-469.3431 641.2679,-469.3431"/>
</g>
<!-- 19 -->
<g id="node20" class="node">
<title>19</title>
<polygon fill="none" stroke="#000000" points="853.4283,-459.2 748.1073,-459.2 748.1073,-367.2 853.4283,-367.2 853.4283,-459.2"/>
<text text-anchor="middle" x="800.7678" y="-442.6" font-family="Times,serif" font-size="14.00" fill="#000000">D2 &lt;= 2.247</text>
<text text-anchor="middle" x="800.7678" y="-425.8" font-family="Times,serif" font-size="14.00" fill="#000000">entropy = 0.469</text>
<text text-anchor="middle" x="800.7678" y="-409" font-family="Times,serif" font-size="14.00" fill="#000000">samples = 30</text>
<text text-anchor="middle" x="800.7678" y="-392.2" font-family="Times,serif" font-size="14.00" fill="#000000">value = [3, 27]</text>
<text text-anchor="middle" x="800.7678" y="-375.4" font-family="Times,serif" font-size="14.00" fill="#000000">class = PD</text>
</g>
<!-- 13&#45;&gt;19 -->
<g id="edge19" class="edge">
<title>13-&gt;19</title>
<path fill="none" stroke="#000000" d="M694.7773,-496.4318C709.4174,-484.9353 725.2199,-472.526 740.0404,-460.8878"/>
<polygon fill="#000000" stroke="#000000" points="742.4561,-463.441 748.1593,-454.5122 738.1328,-457.9356 742.4561,-463.441"/>
</g>
<!-- 15 -->
<g id="node16" class="node">
<title>15</title>
<polygon fill="none" stroke="#000000" points="620.4283,-331.2 515.1073,-331.2 515.1073,-239.2 620.4283,-239.2 620.4283,-331.2"/>
<text text-anchor="middle" x="567.7678" y="-314.6" font-family="Times,serif" font-size="14.00" fill="#000000">DFA &lt;= 0.77</text>
<text text-anchor="middle" x="567.7678" y="-297.8" font-family="Times,serif" font-size="14.00" fill="#000000">entropy = 0.544</text>
<text text-anchor="middle" x="567.7678" y="-281" font-family="Times,serif" font-size="14.00" fill="#000000">samples = 8</text>
<text text-anchor="middle" x="567.7678" y="-264.2" font-family="Times,serif" font-size="14.00" fill="#000000">value = [7, 1]</text>
<text text-anchor="middle" x="567.7678" y="-247.4" font-family="Times,serif" font-size="14.00" fill="#000000">class = HD</text>
</g>
<!-- 14&#45;&gt;15 -->
<g id="edge15" class="edge">
<title>14-&gt;15</title>
<path fill="none" stroke="#000000" d="M612.4962,-366.9891C607.7381,-358.2885 602.7194,-349.1115 597.8318,-340.1741"/>
<polygon fill="#000000" stroke="#000000" points="600.8713,-338.4375 593.0023,-331.3431 594.7297,-341.7962 600.8713,-338.4375"/>
</g>
<!-- 18 -->
<g id="node19" class="node">
<title>18</title>
<polygon fill="none" stroke="#000000" points="729.3046,-322.9003 638.231,-322.9003 638.231,-247.4997 729.3046,-247.4997 729.3046,-322.9003"/>
<text text-anchor="middle" x="683.7678" y="-306.2" font-family="Times,serif" font-size="14.00" fill="#000000">entropy = 0.0</text>
<text text-anchor="middle" x="683.7678" y="-289.4" font-family="Times,serif" font-size="14.00" fill="#000000">samples = 3</text>
<text text-anchor="middle" x="683.7678" y="-272.6" font-family="Times,serif" font-size="14.00" fill="#000000">value = [0, 3]</text>
<text text-anchor="middle" x="683.7678" y="-255.8" font-family="Times,serif" font-size="14.00" fill="#000000">class = PD</text>
</g>
<!-- 14&#45;&gt;18 -->
<g id="edge18" class="edge">
<title>14-&gt;18</title>
<path fill="none" stroke="#000000" d="M654.3749,-366.9891C658.3955,-355.8012 662.6993,-343.8255 666.739,-332.5845"/>
<polygon fill="#000000" stroke="#000000" points="670.119,-333.528 670.2073,-322.9335 663.5315,-331.1605 670.119,-333.528"/>
</g>
<!-- 16 -->
<g id="node17" class="node">
<title>16</title>
<polygon fill="none" stroke="#000000" points="535.3046,-194.9003 444.231,-194.9003 444.231,-119.4997 535.3046,-119.4997 535.3046,-194.9003"/>
<text text-anchor="middle" x="489.7678" y="-178.2" font-family="Times,serif" font-size="14.00" fill="#000000">entropy = 0.0</text>
<text text-anchor="middle" x="489.7678" y="-161.4" font-family="Times,serif" font-size="14.00" fill="#000000">samples = 6</text>
<text text-anchor="middle" x="489.7678" y="-144.6" font-family="Times,serif" font-size="14.00" fill="#000000">value = [6, 0]</text>
<text text-anchor="middle" x="489.7678" y="-127.8" font-family="Times,serif" font-size="14.00" fill="#000000">class = HD</text>
</g>
<!-- 15&#45;&gt;16 -->
<g id="edge16" class="edge">
<title>15-&gt;16</title>
<path fill="none" stroke="#000000" d="M539.608,-238.9891C532.5838,-227.4622 525.05,-215.099 518.0213,-203.5647"/>
<polygon fill="#000000" stroke="#000000" points="520.9542,-201.6516 512.7617,-194.9335 514.9766,-205.2942 520.9542,-201.6516"/>
</g>
<!-- 17 -->
<g id="node18" class="node">
<title>17</title>
<polygon fill="none" stroke="#000000" points="645.3046,-194.9003 554.231,-194.9003 554.231,-119.4997 645.3046,-119.4997 645.3046,-194.9003"/>
<text text-anchor="middle" x="599.7678" y="-178.2" font-family="Times,serif" font-size="14.00" fill="#000000">entropy = 1.0</text>
<text text-anchor="middle" x="599.7678" y="-161.4" font-family="Times,serif" font-size="14.00" fill="#000000">samples = 2</text>
<text text-anchor="middle" x="599.7678" y="-144.6" font-family="Times,serif" font-size="14.00" fill="#000000">value = [1, 1]</text>
<text text-anchor="middle" x="599.7678" y="-127.8" font-family="Times,serif" font-size="14.00" fill="#000000">class = HD</text>
</g>
<!-- 15&#45;&gt;17 -->
<g id="edge17" class="edge">
<title>15-&gt;17</title>
<path fill="none" stroke="#000000" d="M579.3205,-238.9891C582.0892,-227.9142 585.051,-216.0674 587.8365,-204.9254"/>
<polygon fill="#000000" stroke="#000000" points="591.3045,-205.4838 590.3344,-194.9335 584.5135,-203.786 591.3045,-205.4838"/>
</g>
<!-- 20 -->
<g id="node21" class="node">
<title>20</title>
<polygon fill="none" stroke="#000000" points="853.8354,-331.2 747.7002,-331.2 747.7002,-239.2 853.8354,-239.2 853.8354,-331.2"/>
<text text-anchor="middle" x="800.7678" y="-314.6" font-family="Times,serif" font-size="14.00" fill="#000000">RPDE &lt;= 0.424</text>
<text text-anchor="middle" x="800.7678" y="-297.8" font-family="Times,serif" font-size="14.00" fill="#000000">entropy = 0.811</text>
<text text-anchor="middle" x="800.7678" y="-281" font-family="Times,serif" font-size="14.00" fill="#000000">samples = 12</text>
<text text-anchor="middle" x="800.7678" y="-264.2" font-family="Times,serif" font-size="14.00" fill="#000000">value = [3, 9]</text>
<text text-anchor="middle" x="800.7678" y="-247.4" font-family="Times,serif" font-size="14.00" fill="#000000">class = PD</text>
</g>
<!-- 19&#45;&gt;20 -->
<g id="edge20" class="edge">
<title>19-&gt;20</title>
<path fill="none" stroke="#000000" d="M800.7678,-366.9891C800.7678,-358.7417 800.7678,-350.0661 800.7678,-341.5724"/>
<polygon fill="#000000" stroke="#000000" points="804.2679,-341.3431 800.7678,-331.3431 797.2679,-341.3431 804.2679,-341.3431"/>
</g>
<!-- 25 -->
<g id="node26" class="node">
<title>25</title>
<polygon fill="none" stroke="#000000" points="969.8045,-322.9003 871.7311,-322.9003 871.7311,-247.4997 969.8045,-247.4997 969.8045,-322.9003"/>
<text text-anchor="middle" x="920.7678" y="-306.2" font-family="Times,serif" font-size="14.00" fill="#000000">entropy = 0.0</text>
<text text-anchor="middle" x="920.7678" y="-289.4" font-family="Times,serif" font-size="14.00" fill="#000000">samples = 18</text>
<text text-anchor="middle" x="920.7678" y="-272.6" font-family="Times,serif" font-size="14.00" fill="#000000">value = [0, 18]</text>
<text text-anchor="middle" x="920.7678" y="-255.8" font-family="Times,serif" font-size="14.00" fill="#000000">class = PD</text>
</g>
<!-- 19&#45;&gt;25 -->
<g id="edge25" class="edge">
<title>19-&gt;25</title>
<path fill="none" stroke="#000000" d="M844.0906,-366.9891C855.2149,-355.1231 867.17,-342.371 878.253,-330.5492"/>
<polygon fill="#000000" stroke="#000000" points="881.1066,-332.6227 885.3926,-322.9335 875.9998,-327.8351 881.1066,-332.6227"/>
</g>
<!-- 21 -->
<g id="node22" class="node">
<title>21</title>
<polygon fill="none" stroke="#000000" points="788.3046,-194.9003 697.231,-194.9003 697.231,-119.4997 788.3046,-119.4997 788.3046,-194.9003"/>
<text text-anchor="middle" x="742.7678" y="-178.2" font-family="Times,serif" font-size="14.00" fill="#000000">entropy = 0.0</text>
<text text-anchor="middle" x="742.7678" y="-161.4" font-family="Times,serif" font-size="14.00" fill="#000000">samples = 2</text>
<text text-anchor="middle" x="742.7678" y="-144.6" font-family="Times,serif" font-size="14.00" fill="#000000">value = [2, 0]</text>
<text text-anchor="middle" x="742.7678" y="-127.8" font-family="Times,serif" font-size="14.00" fill="#000000">class = HD</text>
</g>
<!-- 20&#45;&gt;21 -->
<g id="edge21" class="edge">
<title>20-&gt;21</title>
<path fill="none" stroke="#000000" d="M779.8285,-238.9891C774.7078,-227.6882 769.2228,-215.5835 764.0847,-204.2441"/>
<polygon fill="#000000" stroke="#000000" points="767.1811,-202.5975 759.8658,-194.9335 760.8052,-205.4866 767.1811,-202.5975"/>
</g>
<!-- 22 -->
<g id="node23" class="node">
<title>22</title>
<polygon fill="none" stroke="#000000" points="911.4283,-203.2 806.1073,-203.2 806.1073,-111.2 911.4283,-111.2 911.4283,-203.2"/>
<text text-anchor="middle" x="858.7678" y="-186.6" font-family="Times,serif" font-size="14.00" fill="#000000">PPE &lt;= 0.243</text>
<text text-anchor="middle" x="858.7678" y="-169.8" font-family="Times,serif" font-size="14.00" fill="#000000">entropy = 0.469</text>
<text text-anchor="middle" x="858.7678" y="-153" font-family="Times,serif" font-size="14.00" fill="#000000">samples = 10</text>
<text text-anchor="middle" x="858.7678" y="-136.2" font-family="Times,serif" font-size="14.00" fill="#000000">value = [1, 9]</text>
<text text-anchor="middle" x="858.7678" y="-119.4" font-family="Times,serif" font-size="14.00" fill="#000000">class = PD</text>
</g>
<!-- 20&#45;&gt;22 -->
<g id="edge22" class="edge">
<title>20-&gt;22</title>
<path fill="none" stroke="#000000" d="M821.7071,-238.9891C825.6085,-230.3791 829.7213,-221.3026 833.7311,-212.4535"/>
<polygon fill="#000000" stroke="#000000" points="836.9198,-213.8962 837.8592,-203.3431 830.5439,-211.0071 836.9198,-213.8962"/>
</g>
<!-- 23 -->
<g id="node24" class="node">
<title>23</title>
<polygon fill="none" stroke="#000000" points="849.3046,-75.3003 758.231,-75.3003 758.231,.1003 849.3046,.1003 849.3046,-75.3003"/>
<text text-anchor="middle" x="803.7678" y="-58.6" font-family="Times,serif" font-size="14.00" fill="#000000">entropy = 0.0</text>
<text text-anchor="middle" x="803.7678" y="-41.8" font-family="Times,serif" font-size="14.00" fill="#000000">samples = 8</text>
<text text-anchor="middle" x="803.7678" y="-25" font-family="Times,serif" font-size="14.00" fill="#000000">value = [0, 8]</text>
<text text-anchor="middle" x="803.7678" y="-8.2" font-family="Times,serif" font-size="14.00" fill="#000000">class = PD</text>
</g>
<!-- 22&#45;&gt;23 -->
<g id="edge23" class="edge">
<title>22-&gt;23</title>
<path fill="none" stroke="#000000" d="M837.5034,-110.9595C833.5075,-102.2704 829.3263,-93.1781 825.3217,-84.47"/>
<polygon fill="#000000" stroke="#000000" points="828.4208,-82.8319 821.0628,-75.2088 822.0611,-85.7565 828.4208,-82.8319"/>
</g>
<!-- 24 -->
<g id="node25" class="node">
<title>24</title>
<polygon fill="none" stroke="#000000" points="959.3046,-75.3003 868.231,-75.3003 868.231,.1003 959.3046,.1003 959.3046,-75.3003"/>
<text text-anchor="middle" x="913.7678" y="-58.6" font-family="Times,serif" font-size="14.00" fill="#000000">entropy = 1.0</text>
<text text-anchor="middle" x="913.7678" y="-41.8" font-family="Times,serif" font-size="14.00" fill="#000000">samples = 2</text>
<text text-anchor="middle" x="913.7678" y="-25" font-family="Times,serif" font-size="14.00" fill="#000000">value = [1, 1]</text>
<text text-anchor="middle" x="913.7678" y="-8.2" font-family="Times,serif" font-size="14.00" fill="#000000">class = HD</text>
</g>
<!-- 22&#45;&gt;24 -->
<g id="edge24" class="edge">
<title>22-&gt;24</title>
<path fill="none" stroke="#000000" d="M880.0322,-110.9595C884.0281,-102.2704 888.2093,-93.1781 892.2139,-84.47"/>
<polygon fill="#000000" stroke="#000000" points="895.4745,-85.7565 896.4728,-75.2088 889.1148,-82.8319 895.4745,-85.7565"/>
</g>
</g>
</svg>